<?xml version="1.0" encoding="UTF-8" standalone="no"?>
<svg
   width="34.272846"
   height="40.674999"
   viewBox="0 0 34.272845 40.674999"
   version="1.1"
   id="svg2"
   sodipodi:docname="logo-stackoverflow.svg"
   inkscape:version="1.3 (0e150ed6c4, 2023-07-21)"
   xmlns:inkscape="http://www.inkscape.org/namespaces/inkscape"
   xmlns:sodipodi="http://sodipodi.sourceforge.net/DTD/sodipodi-0.dtd"
   xmlns="http://www.w3.org/2000/svg"
   xmlns:svg="http://www.w3.org/2000/svg">
  <defs
     id="defs2" />
  <sodipodi:namedview
     id="namedview2"
     pagecolor="#ffffff"
     bordercolor="#000000"
     borderopacity="0.25"
     inkscape:showpageshadow="2"
     inkscape:pageopacity="0.0"
     inkscape:pagecheckerboard="0"
     inkscape:deskcolor="#d1d1d1"
     inkscape:zoom="2.255627"
     inkscape:cx="118.14897"
     inkscape:cy="11.305061"
     inkscape:window-width="1920"
     inkscape:window-height="1017"
     inkscape:window-x="-8"
     inkscape:window-y="-8"
     inkscape:window-maximized="1"
     inkscape:current-layer="g2" />
  <g
     fill="none"
     fill-rule="evenodd"
     id="g2"
     transform="translate(-42.560228,-50.70295)">
    <polygon
       fill="#bbbbbb"
       points="99,80 99,124 0,124 0,80 11,80 11,113 88,113 88,80 "
       id="polygon1"
       transform="matrix(0.32853608,0,0,0.32853608,42.560228,50.639871)" />
    <path
       fill="#f58025"
       fill-rule="nonzero"
       d="m 50.11258,75.848445 17.749162,3.730525 0.746105,-3.548188 -17.749162,-3.73217 z m 2.348704,-8.4989 16.441917,7.657519 1.531635,-3.288318 -16.442245,-7.657519 z m 4.549568,-8.066547 13.939129,11.607509 2.321436,-2.787629 -13.939129,-11.60718 z m 8.997617,-8.580048 -2.910829,2.165053 10.824606,14.554148 2.91083,-2.164724 z M 49.788022,84.150553 H 67.857506 V 80.536656 H 49.788022 Z"
       id="path2"
       style="stroke-width:0.328536" />
  </g>
</svg>
